<svg width="22" height="22" viewBox="0 0 22 22" fill="none" xmlns="http://www.w3.org/2000/svg">
<circle cx="11" cy="11" r="10.5" stroke="#C1C1C1"/>
<path d="M12.0586 8.36035H10.2568V17H12.0586V8.36035ZM12.2432 5.66211C12.2432 5.35449 12.1377 5.09961 11.9355 4.89746C11.7246 4.68652 11.4697 4.58984 11.1621 4.58984C10.8457 4.58984 10.5908 4.68652 10.3887 4.89746C10.1777 5.09961 10.0811 5.35449 10.0811 5.66211C10.0811 5.97852 10.1777 6.2334 10.3887 6.43555C10.5908 6.64648 10.8457 6.74316 11.1621 6.74316C11.4697 6.74316 11.7246 6.64648 11.9355 6.43555C12.1377 6.2334 12.2432 5.97852 12.2432 5.66211Z" fill="#C1C1C1"/>
</svg>
